<svg t="1710378306353" class="icon" viewBox="0 0 1024 1024" version="1.1" xmlns="http://www.w3.org/2000/svg" p-id="1838" width="200" height="200"><path d="M832.692 322.93c-16.678-3.216-27.606-19.34-24.394-36.022 3.212-16.68 19.34-27.6 36.024-24.392l1.568 0.306c1.628 0.536 4.666-7.872 6.738-18.678 2.082-10.806-13.184-22.916-33.918-26.902L341.212 125.352c-20.74-3.99-39.386 1.506-41.446 12.21-2.064 10.708-3.592 19.486-3.404 19.51l0.174 0.038c16.68 3.206 27.606 19.332 24.396 36.01-3.212 16.686-19.34 27.608-36.02 24.396l-0.174-0.032c-0.184-0.054-3.596 16.872-7.588 37.606L175.204 784.844c-3.986 20.73 9.716 40.964 30.45 44.95l477.498 91.882c20.738 3.99 40.964-9.706 44.96-30.446l102.006-530.106c3.99-20.736 5.858-37.788 4.152-37.896l-1.578-0.298z m-438.224-84.336c-16.684-3.212-27.602-19.328-24.39-36.014 3.202-16.676 19.33-27.594 36.01-24.39 16.688 3.206 27.606 19.338 24.394 36.014-3.21 16.686-19.338 27.608-36.014 24.39z m109.558 21.084c-16.68-3.208-27.606-19.33-24.4-36.016 3.212-16.676 19.34-27.6 36.024-24.396 16.68 3.212 27.596 19.338 24.39 36.028-3.206 16.672-19.336 27.6-36.014 24.384z m109.552 21.08c-16.678-3.208-27.602-19.328-24.394-36.008 3.216-16.686 19.34-27.616 36.02-24.396 16.684 3.204 27.606 19.328 24.394 36.02-3.212 16.678-19.332 27.6-36.02 24.384z m109.562 21.088c-16.688-3.212-27.606-19.336-24.396-36.01 3.202-16.688 19.33-27.61 36.014-24.4 16.684 3.206 27.602 19.334 24.39 36.014-3.21 16.678-19.33 27.6-36.008 24.396z" fill="#FC6084" p-id="1839"></path><path d="M364.964 385.126c83.46 17.436 166.916 34.87 250.376 52.302 30.12 6.292 60.236 12.578 90.35 18.87 5.468 1.14 7.394-8.096 1.932-9.238-83.46-17.432-166.92-34.862-250.376-52.296-30.12-6.286-60.24-12.582-90.35-18.87-5.468-1.138-7.396 8.096-1.932 9.232zM351.482 449.684l250.38 52.292 90.346 18.868c5.468 1.146 7.4-8.094 1.932-9.238-83.46-17.43-166.92-34.86-250.38-52.294-30.11-6.282-60.23-12.578-90.35-18.864-5.466-1.144-7.396 8.094-1.928 9.236zM338 514.234c83.46 17.434 166.92 34.866 250.376 52.292l90.35 18.876c5.468 1.138 7.394-8.098 1.926-9.244-83.456-17.428-166.916-34.86-250.376-52.292-30.116-6.29-60.236-12.586-90.346-18.872-5.466-1.136-7.394 8.098-1.93 9.24zM324.518 578.79c83.46 17.432 166.916 34.864 250.376 52.29 30.114 6.294 60.234 12.582 90.346 18.872 5.468 1.146 7.404-8.096 1.936-9.238-83.46-17.434-166.92-34.86-250.38-52.292a599952.6 599952.6 0 0 0-90.35-18.868c-5.464-1.148-7.396 8.094-1.928 9.236zM311.036 643.342c83.456 17.432 166.916 34.864 250.376 52.29 30.12 6.298 60.234 12.578 90.35 18.868 5.468 1.148 7.394-8.092 1.926-9.238-83.46-17.426-166.92-34.864-250.376-52.29l-90.346-18.868c-5.466-1.148-7.394 8.09-1.93 9.238zM297.554 707.888l250.38 52.29c30.11 6.294 60.23 12.582 90.342 18.872 5.468 1.146 7.394-8.092 1.936-9.238-83.46-17.428-166.92-34.854-250.38-52.294-30.12-6.284-60.23-12.57-90.35-18.868-5.47-1.138-7.396 8.096-1.928 9.238z" fill="#FFA4AC" p-id="1840"></path><path d="M400.208 993.37a4.62 4.62 0 0 1-2.16-0.266C249.452 937.254 156.46 845.836 113.78 713.61a4.646 4.646 0 0 1 0.496-3.918c0.738-1.16 1.964-1.936 3.33-2.12l0.66-0.074c8.22-0.936 14.734 0.624 20.128 3.578a445.234 445.234 0 0 1-5.166-9.004 4.64 4.64 0 0 1 3.526-6.878c0.316-0.046 0.642-0.046 0.968-0.008 53.056 5.056 83.166 32.734 112.282 59.506 12.582 11.574 24.464 22.496 37.804 31.156 19.102 12.376 40.102 22.752 60.418 32.784 31.318 15.464 63.694 31.464 90.328 55.326 0.28 0.248 0.528 0.532 0.734 0.84l36.408 53.326a4.64 4.64 0 0 1-3.308 7.23 3.048 3.048 0 0 1-0.404 0.028l-76.35 2.134c1.486 7.95 1.99 11.468 2.554 15.45 0.826 5.78 1.766 12.33 6.056 34.922a4.64 4.64 0 0 1-4.036 5.482z" fill="#29ADFC" p-id="1841"></path><path d="M369.142 927.488a4.508 4.508 0 0 1-2.362-0.354c-104.134-44.844-175.3-125.204-244.128-202.916l-7.9-8.914a4.476 4.476 0 0 1-0.652-0.95c-12.064-23.326-19.202-49.496-22.468-82.352a4.634 4.634 0 0 1 0.468-2.538c3.812-7.598 9-11.816 15.422-12.55 4.536-0.516 9.536 0.822 14.862 3.974 0.376 0.222 0.716 0.49 1.018 0.812C224.912 729.452 353.636 806.656 506 851.152a4.646 4.646 0 0 1 0.5 8.74c-17.386 7.308-25.596 9.51-38.018 12.834-7.652 2.05-17.166 4.602-31.644 9.124a5.03 5.03 0 0 1-0.858 0.184 4.856 4.856 0 0 1-1.308-0.036c-91.02-15.528-157.714-69.698-222.206-122.07a6128.4 6128.4 0 0 0-12.872-10.444c-5.284-4.262-10.362-8.826-15.284-13.224a530.41 530.41 0 0 0-10.298-9.078c34.4 55.69 85.836 98.102 135.746 139.25 20.674 17.046 42.056 34.666 62.006 53.032a4.642 4.642 0 0 1-2.622 8.024z" fill="#7BEFE5" p-id="1842"></path><path d="M874.316 258.552c-50.662 5.764-85.864-15.038-116.91-33.384-14.046-8.3-27.304-16.138-41.45-21.55-20.276-7.76-41.956-13.274-62.918-18.604-32.39-8.234-65.882-16.752-95.592-33.806a5.356 5.356 0 0 1-0.978-0.724l-13.536-12.918c-8.84-8.426-18.61-17.754-31.096-29.676a5.05 5.05 0 1 1 2.292-8.56l70.248-17.016c-2.77-6.684-3.914-9.792-5.192-13.286-1.918-5.234-4.092-11.17-12.596-31.432a5.044 5.044 0 0 1 5.404-6.942c150.2 22.666 255.45 89.716 321.748 204.98a5.04 5.04 0 0 1 0.358 4.276 5.074 5.074 0 0 1-3.056 3.008 38.1 38.1 0 0 1-8.23 1.934c-3.698 0.42-7.102 0.176-10.266-0.546 1.762 1.938 3.504 3.896 5.248 5.888 1.23 1.416 1.578 3.394 0.908 5.142a5.054 5.054 0 0 1-4.128 3.196 3.304 3.304 0 0 0-0.258 0.02z" fill="#29ADFC" p-id="1843"></path><path d="M914.894 326.436c-3.412 0.388-7.266-0.126-11.468-1.542a4.896 4.896 0 0 1-1.266-0.64c-116.24-80.456-251.812-126.968-402.96-138.232a5.038 5.038 0 0 1-4.496-3.702 5.06 5.06 0 0 1 1.982-5.476c14.836-10.316 22.092-14.014 33.064-19.61 6.734-3.428 15.12-7.702 27.726-14.8 0.596-0.33 1.238-0.542 1.908-0.614 0.12-0.012 0.238-0.026 0.368-0.028 88.312-3.612 161.488 33.778 232.26 69.938 4.71 2.404 9.418 4.812 14.128 7.206 5.802 2.944 11.482 6.202 16.972 9.35 2.588 1.486 5.192 2.986 7.84 4.458-42.794-43.502-98.006-72.228-151.604-100.106-22.726-11.822-46.22-24.042-68.538-37.254a5.036 5.036 0 0 1-2.142-6.146 5.038 5.038 0 0 1 5.698-3.142c106.414 21.23 189.002 82.236 268.866 141.232l9.102 6.722c0.34 0.248 0.642 0.536 0.908 0.862 15.964 19.468 27.872 42.568 37.492 72.706 0.288 0.91 0.316 1.88 0.074 2.808-3.16 12.096-10.39 15.378-15.914 16.01z" fill="#7BEFE5" p-id="1844"></path><path d="M354.692 534.784c4.812-4.512 9.624-9.018 14.426-13.528 1.224-1.064 2.464-2.134 3.684-3.204 3.45-3.224 6.89-6.44 10.34-9.66 0.49-0.026 0.978-0.032 1.468-0.026 12.33 13.526 24.734 26.982 36.96 40.6 2.17 2.412 3.628 5.456 5.418 8.208-3.386 3.374-6.78 6.75-10.174 10.124-20.708-10.834-41.41-21.674-62.122-32.514z" fill="#E16B56" p-id="1845"></path><path d="M426.988 557.176c-1.79-2.752-3.248-5.796-5.418-8.208-12.226-13.618-24.63-27.074-36.96-40.6 1.734-2.064 3.468-4.146 5.206-6.216 1.16-1.172 2.32-2.342 3.486-3.51 4.822-4.514 9.634-9.03 14.45-13.544 9.39 21.588 18.776 43.168 28.16 64.756a8974.304 8974.304 0 0 1-7.524 7.228c-0.464 0.036-0.928 0.078-1.4 0.094z" fill="#B25746" p-id="1846"></path><path d="M146.534 284.534c2.082-1.62 4.17-3.24 6.256-4.856 70.588 75.668 141.186 151.322 211.7 227.05 3.17 3.406 5.56 7.532 8.312 11.326-1.22 1.07-2.458 2.14-3.684 3.204-3.652-3.464-7.492-6.746-10.914-10.414-69.358-74.252-138.68-148.552-208.012-222.832-1.144-1.23-2.434-2.322-3.658-3.478zM167.374 266.322l5.244-5.932c38.982 41.918 77.946 83.866 116.952 125.75 32.29 34.68 64.666 69.284 96.952 103.968 2.468 2.646 4.536 5.672 6.784 8.534-1.166 1.168-2.326 2.336-3.486 3.51-3.588-3.044-7.5-5.764-10.684-9.164-70.636-75.512-141.198-151.102-211.762-226.666z" fill="#D56080" p-id="1847"></path><path d="M386.52 490.108c2.468 2.646 4.536 5.672 6.784 8.534 4.822-4.514 9.634-9.03 14.45-13.544-0.252-0.496-0.418-1.076-0.784-1.468a1065861.646 1065861.646 0 0 0-220.48-236.224c-0.184-0.194-0.486-0.28-0.734-0.412-4.376 4.456-8.762 8.922-13.138 13.398 38.982 41.918 77.946 83.866 116.952 125.75 32.288 34.678 64.664 69.282 96.95 103.966zM372.804 518.054c3.45-3.224 6.89-6.44 10.34-9.66 0.49-0.026 0.978-0.032 1.468-0.026 1.734-2.064 3.468-4.146 5.206-6.216-3.588-3.044-7.5-5.764-10.684-9.164-70.634-75.512-141.194-151.104-211.756-226.666-1.666 1.254-3.33 2.5-4.99 3.74l-3.018 0.828a1858.928 1858.928 0 0 0-6.578 8.786c70.588 75.668 141.186 151.322 211.7 227.05 3.168 3.408 5.558 7.534 8.312 11.328zM135.662 300.742c71.552 76.704 143.122 153.404 214.692 230.084 1.33 1.426 2.894 2.642 4.34 3.958 4.812-4.512 9.624-9.018 14.422-13.532-3.648-3.46-7.486-6.742-10.908-10.41-69.358-74.252-138.68-148.552-208.012-222.832-1.146-1.23-2.436-2.322-3.66-3.478-4.692 4.108-9.386 8.21-14.078 12.312 1.066 1.3 2.056 2.668 3.204 3.898z" fill="#074784" p-id="1848"></path><path d="M117.358 280.418c3.766 6.49 9.908 11.794 15.092 16.942 0.074 0.068 1.788 1.842 1.844 1.784 0.004 0 53.754-50.066 53.754-50.066-3.354-3.654-6.734-7.286-10.056-10.968-3.574-3.958-7.294-8.094-12.404-10.034-4.408-1.67-9.524-1.872-14-0.356-2.464 0.842-5.128 2.212-7.156 3.856-8.45 6.82-16.302 14.55-23.89 22.31-5.496 5.62-8 14.578-5.266 22.104 0.56 1.544 1.266 3.016 2.082 4.428z" fill="#29ADFC" p-id="1849"></path><path d="M426.988 557.176l-10.174 10.124a87047.22 87047.22 0 0 0 33.138 17.782s1.954 0.446 1.376-1.848c-1.944-3.962-3.89-7.916-5.844-11.88-3.18-7.168-6.376-14.332-9.568-21.498-2.506 2.406-6.414 4.914-8.928 7.32z" fill="#074784" p-id="1850"></path><path d="M435.914 549.854l-19.102 17.446s-36.67-17.394-62.12-32.514l53.06-49.686c0.002-0.002 15.208 32.034 28.162 64.754z" fill="#F9D455" p-id="1851"></path><path d="M260.558 647.048a12.892 12.892 0 0 1-13.834 11.88 12.896 12.896 0 0 1-11.886-13.836 12.9 12.9 0 0 1 13.84-11.886 12.908 12.908 0 0 1 11.88 13.842zM721.846 678.568a12.888 12.888 0 0 1-13.836 11.88 12.9 12.9 0 0 1 1.956-25.72 12.9 12.9 0 0 1 11.88 13.84z" fill="#FFFFFF" p-id="1852"></path><path d="M470.31 789.34a9.684 9.684 0 0 1-10.394 8.918 9.68 9.68 0 0 1-8.918-10.39 9.684 9.684 0 1 1 19.312 1.472zM768.46 392.186a15.222 15.222 0 0 1-16.34 14.034 15.232 15.232 0 0 1-14.036-16.35c0.638-8.386 7.958-14.666 16.35-14.034 8.384 0.646 14.67 7.96 14.026 16.35z" fill="#FFA4AC" p-id="1853"></path><path d="M549.154 309.738a12.9 12.9 0 1 1-11.886-13.838 12.91 12.91 0 0 1 11.886 13.838z" fill="#FFFFFF" p-id="1854"></path><path d="M589.026 831.538a12.74 12.74 0 0 1-12.744 12.744 12.74 12.74 0 1 1 0-25.482 12.738 12.738 0 0 1 12.744 12.738zM656.212 386.244a12.746 12.746 0 1 1-25.492 0 12.746 12.746 0 0 1 25.492 0zM446.842 342.252a9.082 9.082 0 0 1-8.72 9.444 9.094 9.094 0 0 1-9.444-8.724 9.09 9.09 0 0 1 8.724-9.444 9.078 9.078 0 0 1 9.44 8.724zM269.678 561.79a9.088 9.088 0 0 1-8.72 9.446 9.092 9.092 0 1 1-0.726-18.17 9.086 9.086 0 0 1 9.446 8.724zM682.744 772.16c-7.074 33.524 1.34 50.488 21.882 58.092-22.102-2.996-37.662 9.412-46.928 42.266 6.408-32.738 0.532-51.89-21.458-58.712 21.88 2.18 37.31-9.19 46.504-41.646z" fill="#074784" p-id="1855"></path><path d="M748.25 499.528c-5.542 28.886 1.954 43.308 19.716 49.52-19.018-2.212-32.184 8.69-39.616 37.04 4.982-28.214-0.376-44.556-19.362-50.06 18.82 1.518 31.894-8.504 39.262-36.5zM353.18 248.61c-3.89 33.636 5.944 49.558 26.864 55.166-22.028-0.908-36.202 12.732-42.312 45.91 3.304-32.816-4.238-51.12-26.504-55.818 21.73 0.14 35.878-12.484 41.952-45.258z" fill="#FFFFFF" p-id="1856"></path><path d="M181.516 649.69c3.784 6.064 1.06 10.468-6.06 9.79l-43.96-4.224c-7.12-0.684-16.706 3.234-21.302 8.712l-28.404 33.816c-4.596 5.478-9.628 4.244-11.174-2.738l-9.568-43.106c-1.55-6.982-8.238-14.89-14.872-17.572L5.234 617.8c-6.628-2.678-7.014-7.844-0.848-11.472l38.046-22.422c6.166-3.632 11.616-12.438 12.12-19.576l3.096-44.05c0.504-7.132 5.298-9.096 10.656-4.358l33.074 29.254c5.358 4.744 15.422 7.2 22.358 5.472l42.854-10.664c6.946-1.722 10.284 2.228 7.44 8.788l-17.606 40.5c-2.854 6.56-2.082 16.888 1.702 22.956l23.39 37.462zM935.652 250.518c4.142-5.82 9.252-4.998 11.358 1.844l12.964 42.214c2.096 6.838 9.4 14.188 16.216 16.334l42.128 13.254c6.822 2.144 7.614 7.264 1.762 11.372l-36.148 25.376c-5.854 4.106-10.588 13.322-10.518 20.47l0.412 44.166c0.064 7.15-4.556 9.482-10.27 5.184L928.252 404.2c-5.716-4.3-15.946-5.954-22.726-3.682l-41.872 14.04c-6.78 2.27-10.432-1.4-8.11-8.17l14.33-41.774c2.322-6.762 0.734-16.994-3.524-22.738l-26.29-35.49c-4.258-5.744-1.894-10.348 5.262-10.238l44.152 0.722c7.152 0.114 16.394-4.558 20.546-10.382l25.632-35.97z" fill="#F9D455" p-id="1857"></path><path d="M933.088 299.406c1.872-2.634 4.184-2.26 5.138 0.83l5.862 19.092c0.95 3.092 4.248 6.416 7.33 7.386l19.05 5.996c3.088 0.972 3.446 3.284 0.798 5.144l-16.344 11.476c-2.642 1.858-4.788 6.022-4.758 9.254l0.188 19.972c0.028 3.236-2.064 4.292-4.648 2.346l-15.968-11.998c-2.578-1.942-7.206-2.692-10.276-1.668l-18.936 6.35c-3.064 1.026-4.716-0.636-3.664-3.694l6.482-18.89c1.046-3.06 0.33-7.686-1.596-10.284l-11.89-16.05c-1.922-2.596-0.854-4.68 2.386-4.628l19.964 0.326c3.238 0.052 7.412-2.06 9.294-4.694l11.588-16.266zM77.39 568.526c0.128-3.232 2.266-4.184 4.756-2.118l15.358 12.768c2.486 2.066 7.07 3.04 10.18 2.16l19.226-5.414c3.11-0.878 4.68 0.868 3.482 3.872l-7.39 18.55c-1.202 3.004-0.706 7.66 1.082 10.352l11.092 16.608c1.798 2.688 0.628 4.716-2.606 4.508l-19.926-1.298c-3.22-0.21-7.504 1.692-9.514 4.238l-12.362 15.672c-2.004 2.542-4.298 2.056-5.088-1.078l-4.926-19.358c-0.798-3.134-3.926-6.612-6.964-7.73l-18.734-6.922c-3.036-1.122-3.284-3.452-0.546-5.18l16.886-10.658c2.734-1.722 5.074-5.784 5.212-9.016l0.782-19.956z" fill="#F18545" p-id="1858"></path></svg>
